<svg width="32" height="32" viewBox="0 0 32 32" fill="none" xmlns="http://www.w3.org/2000/svg">
<path d="M28 10.6667H4M10.6667 6.66668V4.00001M21.3333 6.66667V4M6.66667 5.33335H6.53333C5.13421 5.33335 4 6.46756 4 7.86668V24C4 25.4728 5.19391 26.6667 6.66667 26.6667H25.3333C26.8061 26.6667 28 25.4728 28 24V7.86668C28 6.46756 26.8657 5.33335 25.4667 5.33335H25.3333M14.6667 5.33335H17.3333M10.5822 16.2389C10.9724 15.3175 11.6735 15.0196 12.316 14.9739C12.9585 14.928 14.3173 14.9739 14.6273 16.0983C14.9375 17.2227 14.7677 18.1735 13.5496 18.8763C12.526 19.4668 10.9928 20.1855 10.4827 21.2949C10.3232 21.6419 10.6333 21.972 11.0151 21.972H14.9203M21.2077 15.5036C20.032 14.7104 18.928 14.7515 17.8745 15.6604C16.9627 16.4472 16.8263 18.7707 17.1272 20.3359M17.1272 20.3359C17.174 20.5792 17.2313 20.8041 17.298 21.0021C17.7932 22.4744 20.718 22.7364 21.4561 21.1899C22.1943 19.6435 21.0377 17.9732 19.6583 17.9732C18.2787 17.9732 16.9837 18.6747 17.1272 20.3359Z" stroke="#121212" stroke-width="1.25" stroke-linecap="round"/>
</svg>
