<svg width="32" height="32" viewBox="0 0 32 32" fill="none" xmlns="http://www.w3.org/2000/svg">
<path d="M26 15.5C26.0038 16.8199 25.6612 18.1219 25 19.3C24.216 20.7118 23.0108 21.8992 21.5194 22.7293C20.0279 23.5594 18.3091 23.9994 16.5555 24C15.089 24.0034 13.6423 23.6951 12.3333 23.1L6 25L8.11111 19.3C7.44992 18.1219 7.10729 16.8199 7.11111 15.5C7.11179 13.9218 7.60068 12.3749 8.52302 11.0326C9.44536 9.69027 10.7647 8.60559 12.3333 7.90003C13.6423 7.30496 15.089 6.99659 16.5555 7.00003H17.1111C19.427 7.11502 21.6145 7.99479 23.2546 9.47088C24.8947 10.947 25.8722 12.9157 26 15V15.5Z" stroke="#121212" stroke-width="1.5" stroke-linecap="round" stroke-linejoin="round"/>
</svg>
