<svg width="32" height="32" viewBox="0 0 32 32" fill="none" xmlns="http://www.w3.org/2000/svg">
<path d="M25.3333 24V13.1046C25.3333 12.3973 25.0392 11.7353 24.492 11.2871C23.0544 10.1093 20.1291 7.76829 17.8012 5.68753C16.7623 4.75889 15.1831 4.70023 14.1251 5.60707L7.59788 11.2018C7.00683 11.7084 6.66666 12.448 6.66666 13.2265V24C6.66666 25.4728 7.86056 26.6667 9.33332 26.6667H9.99999C11.4728 26.6667 12.6667 25.4728 12.6667 24V21.3333C12.6667 19.8605 13.8605 18.6667 15.3333 18.6667H16.6667C18.1395 18.6667 19.3333 19.8605 19.3333 21.3333V24C19.3333 25.4728 20.5272 26.6667 22 26.6667H22.6667C24.1395 26.6667 25.3333 25.4728 25.3333 24Z" stroke="#121212" stroke-width="1.5" stroke-linecap="round"/>
</svg>
