<svg width="50" height="50" viewBox="0 0 50 50" fill="none" xmlns="http://www.w3.org/2000/svg">
<rect width="50" height="50" rx="8" fill="#7036BE"/>
<path d="M22.032 22.832L18.912 34H16.272L14.176 26.048L11.984 34L9.36 34.016L6.352 22.832H8.752L10.72 31.504L12.992 22.832H15.488L17.632 31.456L19.616 22.832H22.032ZM22.9186 29.536C22.9186 28.64 23.0946 27.8453 23.4466 27.152C23.8093 26.4587 24.2946 25.9253 24.9026 25.552C25.5213 25.1787 26.2093 24.992 26.9666 24.992C27.628 24.992 28.204 25.1253 28.6946 25.392C29.196 25.6587 29.596 25.9947 29.8946 26.4V25.136H32.1506V34H29.8946V32.704C29.6066 33.12 29.2066 33.4667 28.6946 33.744C28.1933 34.0107 27.612 34.144 26.9506 34.144C26.204 34.144 25.5213 33.952 24.9026 33.568C24.2946 33.184 23.8093 32.6453 23.4466 31.952C23.0946 31.248 22.9186 30.4427 22.9186 29.536ZM29.8946 29.568C29.8946 29.024 29.788 28.56 29.5746 28.176C29.3613 27.7813 29.0733 27.4827 28.7106 27.28C28.348 27.0667 27.9586 26.96 27.5426 26.96C27.1266 26.96 26.7426 27.0613 26.3906 27.264C26.0386 27.4667 25.7506 27.7653 25.5266 28.16C25.3133 28.544 25.2066 29.0027 25.2066 29.536C25.2066 30.0693 25.3133 30.5387 25.5266 30.944C25.7506 31.3387 26.0386 31.6427 26.3906 31.856C26.7533 32.0693 27.1373 32.176 27.5426 32.176C27.9586 32.176 28.348 32.0747 28.7106 31.872C29.0733 31.6587 29.3613 31.36 29.5746 30.976C29.788 30.5813 29.8946 30.112 29.8946 29.568ZM37.8104 24.992C38.4717 24.992 39.053 25.1253 39.5544 25.392C40.0557 25.648 40.4504 25.984 40.7384 26.4V25.136H42.9944V34.064C42.9944 34.8853 42.829 35.616 42.4984 36.256C42.1677 36.9067 41.6717 37.4187 41.0104 37.792C40.349 38.176 39.549 38.368 38.6104 38.368C37.3517 38.368 36.317 38.0747 35.5064 37.488C34.7064 36.9013 34.253 36.1013 34.1464 35.088H36.3704C36.4877 35.4933 36.7384 35.8133 37.1224 36.048C37.517 36.2933 37.9917 36.416 38.5464 36.416C39.197 36.416 39.725 36.2187 40.1304 35.824C40.5357 35.44 40.7384 34.8533 40.7384 34.064V32.688C40.4504 33.104 40.0504 33.4507 39.5384 33.728C39.037 34.0053 38.461 34.144 37.8104 34.144C37.0637 34.144 36.381 33.952 35.7624 33.568C35.1437 33.184 34.653 32.6453 34.2904 31.952C33.9384 31.248 33.7624 30.4427 33.7624 29.536C33.7624 28.64 33.9384 27.8453 34.2904 27.152C34.653 26.4587 35.1384 25.9253 35.7464 25.552C36.365 25.1787 37.053 24.992 37.8104 24.992ZM40.7384 29.568C40.7384 29.024 40.6317 28.56 40.4184 28.176C40.205 27.7813 39.917 27.4827 39.5544 27.28C39.1917 27.0667 38.8024 26.96 38.3864 26.96C37.9704 26.96 37.5864 27.0613 37.2344 27.264C36.8824 27.4667 36.5944 27.7653 36.3704 28.16C36.157 28.544 36.0504 29.0027 36.0504 29.536C36.0504 30.0693 36.157 30.5387 36.3704 30.944C36.5944 31.3387 36.8824 31.6427 37.2344 31.856C37.597 32.0693 37.981 32.176 38.3864 32.176C38.8024 32.176 39.1917 32.0747 39.5544 31.872C39.917 31.6587 40.205 31.36 40.4184 30.976C40.6317 30.5813 40.7384 30.112 40.7384 29.568Z" fill="white"/>
<path opacity="0.65" d="M29.024 22.144C28.192 22.144 27.44 21.9573 26.768 21.584C26.096 21.2 25.568 20.6667 25.184 19.984C24.8 19.2907 24.608 18.4907 24.608 17.584C24.608 16.688 24.8053 15.8933 25.2 15.2C25.5947 14.5067 26.1333 13.9733 26.816 13.6C27.4987 13.2267 28.2613 13.04 29.104 13.04C29.9467 13.04 30.7093 13.2267 31.392 13.6C32.0747 13.9733 32.6133 14.5067 33.008 15.2C33.4027 15.8933 33.6 16.688 33.6 17.584C33.6 18.48 33.3973 19.2747 32.992 19.968C32.5867 20.6613 32.032 21.2 31.328 21.584C30.6347 21.9573 29.8667 22.144 29.024 22.144ZM29.024 20.56C29.4933 20.56 29.9307 20.448 30.336 20.224C30.752 20 31.088 19.664 31.344 19.216C31.6 18.768 31.728 18.224 31.728 17.584C31.728 16.944 31.6053 16.4053 31.36 15.968C31.1147 15.52 30.7893 15.184 30.384 14.96C29.9787 14.736 29.5413 14.624 29.072 14.624C28.6027 14.624 28.1653 14.736 27.76 14.96C27.3653 15.184 27.0507 15.52 26.816 15.968C26.5813 16.4053 26.464 16.944 26.464 17.584C26.464 18.5333 26.704 19.2693 27.184 19.792C27.6747 20.304 28.288 20.56 29.024 20.56ZM39.8511 13.04C40.5445 13.04 41.1631 13.184 41.7071 13.472C42.2618 13.76 42.6938 14.1867 43.0031 14.752C43.3125 15.3173 43.4671 16 43.4671 16.8V22H41.6591V17.072C41.6591 16.2827 41.4618 15.68 41.0671 15.264C40.6725 14.8373 40.1338 14.624 39.4511 14.624C38.7685 14.624 38.2245 14.8373 37.8191 15.264C37.4245 15.68 37.2271 16.2827 37.2271 17.072V22H35.4031V13.184H37.2271V14.192C37.5258 13.8293 37.9045 13.5467 38.3631 13.344C38.8325 13.1413 39.3285 13.04 39.8511 13.04Z" fill="white"/>
</svg>
