<svg width="32" height="32" viewBox="0 0 32 32" fill="none" xmlns="http://www.w3.org/2000/svg">
<path d="M20 23.3333V24C20 26.6509 18.2092 28 16 28C13.7908 28 12 26.6509 12 24V23.3333M20 23.3333H22.716C24.9043 23.3333 26.1777 20.83 24.9615 19.0108C24.0513 17.6495 23.1797 16.2607 22.7443 15.3333M20 23.3333H12M12 23.3333H9.28367C7.09539 23.3333 5.82187 20.83 7.03812 19.0108C8.15912 17.3341 9.2215 15.6159 9.48286 14.7692C10.1927 12.4696 9.95242 11.4345 9.95242 10.1538C9.95242 7.46835 11.6429 5.18461 14 4.34444M24.6667 7.33333C24.6667 9.17428 23.1743 10.6667 21.3333 10.6667C19.4924 10.6667 18 9.17428 18 7.33333C18 5.49239 19.4924 4 21.3333 4C23.1743 4 24.6667 5.49239 24.6667 7.33333Z" stroke="#121212" stroke-width="1.5" stroke-linecap="round"/>
</svg>
