<svg width="25" height="86" viewBox="0 0 25 86" fill="none" xmlns="http://www.w3.org/2000/svg">
<path d="M22 10.4091C22 17.7273 12.5 24 12.5 24C12.5 24 3 17.7273 3 10.4091C3 7.91364 4.00089 5.52041 5.78249 3.75586C7.56408 1.99131 9.98044 1 12.5 1C15.0196 1 17.4359 1.99131 19.2175 3.75586C20.9991 5.52041 22 7.91364 22 10.4091Z" stroke="black" stroke-width="2" stroke-linecap="round" stroke-linejoin="round"/>
<path d="M12.5 13.5417C14.2259 13.5417 15.625 12.1426 15.625 10.4167C15.625 8.69086 14.2259 7.29175 12.5 7.29175C10.7741 7.29175 9.375 8.69086 9.375 10.4167C9.375 12.1426 10.7741 13.5417 12.5 13.5417Z" stroke="black" stroke-width="2" stroke-linecap="round" stroke-linejoin="round"/>
</svg>
