<!-- icon666.com - MILLIONS vector ICONS FREE --><svg version="1.1" id="Layer_1" xmlns="http://www.w3.org/2000/svg" xmlns:xlink="http://www.w3.org/1999/xlink" x="0px" y="0px" viewBox="0 0 512 512" style="enable-background:new 0 0 512 512;" xml:space="preserve"><g><g><path d="M500.115,65.06c-9.594-7.812-22.54-9.452-33.782-4.281L16.384,267.785c-11,5.06-17.381,16.12-16.257,28.175 c1.124,12.056,9.439,21.746,21.186,24.686l89.639,22.434l52.792,96.482c4.172,7.626,11.484,12.82,20.059,14.25 c1.567,0.261,3.133,0.39,4.689,0.39c6.955,0,13.659-2.573,18.906-7.362l51.206-46.735c0.315-0.287,0.616-0.584,0.903-0.889 l140.569,44.31c7.46,2.352,15.635,1.473,22.426-2.409c6.79-3.882,11.693-10.479,13.451-18.099l75.204-325.745 C513.942,85.214,509.71,72.872,500.115,65.06z M125.803,313.152l-84.159-21.062l305.369-140.488L130.539,315.181 C129.091,314.268,127.497,313.576,125.803,313.152z M189.627,418.87l-41.618-76.062c0.398-0.25,0.79-0.518,1.173-0.807 l241.821-182.733L204.049,357.153c-3.86,4.086-5.346,9.871-3.933,15.312c1.413,5.441,5.528,9.77,10.889,11.46l12.569,3.962 L189.627,418.87z M405.248,410.931l-159.582-50.303l226.558-239.807L405.248,410.931z"></path></g></g></svg>