<svg width="25" height="43" viewBox="0 0 25 43" fill="none" xmlns="http://www.w3.org/2000/svg">
<path d="M17.9545 5.52176H17.6072L18.5163 3.7609H19.7727C20.2747 3.7609 20.6818 3.36672 20.6818 2.88045C20.6818 2.39419 20.2748 2 19.7727 2H5.22728C4.72524 2 4.31817 2.39419 4.31817 2.88045C4.31817 3.36672 4.72519 3.7609 5.22728 3.7609H6.48357L7.39268 5.52176H7.04544C4.53907 5.52176 2.5 7.49655 2.5 9.92391V21.0761C2.5 23.2894 4.19571 25.1257 6.39487 25.4325L4.26312 27.497C3.9081 27.8408 3.9081 28.3983 4.26312 28.7421C4.61808 29.0859 5.19374 29.086 5.54875 28.7421L8.91882 25.4782H16.0812L19.4512 28.7421C19.8062 29.0859 20.3819 29.0859 20.7369 28.7421C21.0919 28.3982 21.0919 27.8408 20.7369 27.4969L18.6051 25.4324C20.8043 25.1257 22.5 23.2894 22.5 21.0761V9.92391C22.5 7.49655 20.4609 5.52176 17.9545 5.52176ZM16.4836 3.76085L15.5745 5.5217H9.42549L8.51638 3.76085H16.4836ZM7.04544 7.28261C7.57236 7.28261 17.5851 7.28261 17.9546 7.28261C19.1397 7.28261 20.1502 8.01878 20.5255 9.04346H4.4745C4.84977 8.01878 5.86027 7.28261 7.04544 7.28261ZM15.2272 10.8044V17.8478H9.77272V10.8044H15.2272ZM4.31817 10.8044H7.95455V17.8478H4.31817V10.8044ZM20.6818 21.0761C20.6818 22.5325 19.4583 23.7174 17.9545 23.7174C17.6671 23.7174 7.36872 23.7174 7.04539 23.7174C5.54157 23.7174 4.31811 22.5325 4.31811 21.0761V19.6087H20.6818V21.0761ZM20.6818 17.8478H17.0454V10.8044H20.6818V17.8478Z" fill="black"/>
</svg>
